<?xml version="1.0" encoding="utf-8"?>
<!-- Generator: Adobe Illustrator 25.1.0, SVG Export Plug-In . SVG Version: 6.00 Build 0)  -->
<svg version="1.1" id="Capa_1" xmlns="http://www.w3.org/2000/svg" xmlns:xlink="http://www.w3.org/1999/xlink" x="0px" y="0px"
	 viewBox="0 0 300 100" style="enable-background:new 0 0 300 100;" xml:space="preserve">
<style type="text/css">
	.st0{fill:#FFFFFF;}
</style>
<g>
	<path class="st0" d="M90.3,54.2c-0.2,0.9-0.5,1.5-1.1,2.1c-0.5,0.5-1.2,0.9-2,1.1c-0.9,0.2-1.9,0.3-3.1,0.3v14.5h-3.9V27.8h5.3
		c1.5,0,2.8,0.3,3.7,1c1,0.7,1.4,1.8,1.4,3.2v18.9C90.6,52.3,90.5,53.4,90.3,54.2z M86.2,31.6c-0.3-0.2-1-0.3-2-0.3v22.8
		c1,0,1.6-0.2,2-0.5s0.5-1,0.5-2.2V33C86.7,32.2,86.5,31.8,86.2,31.6z"/>
	<path class="st0" d="M93,72.2V27.8h5.3c1.5,0,2.8,0.3,3.7,1c1,0.7,1.4,1.8,1.4,3.2v18.9c0,1.4-0.2,2.4-0.6,3s-0.9,1.1-1.3,1.4
		c0.6,0.2,1,0.6,1.4,1.3c0.4,0.6,0.5,1.2,0.5,1.8v13.7h-3.9v-13c0-0.9-0.2-1.4-0.5-1.7s-1-0.4-2-0.4v15.1L93,72.2L93,72.2z M99,31.7
		c-0.3-0.2-1-0.3-2-0.3v22.1c1,0,1.6-0.2,2-0.5s0.5-1,0.5-2.2V33C99.5,32.3,99.3,31.8,99,31.7z"/>
	<path class="st0" d="M117.2,67c0,1.8-0.4,3.1-1.3,4c-0.9,1-2.2,1.4-3.8,1.4c-1.6,0-2.8-0.4-3.8-1.3c-1-0.9-1.4-2.3-1.4-4.1V33.6
		c0-1.9,0.4-3.4,1.2-4.5c0.9-1.1,2.2-1.6,4-1.6c2,0,3.4,0.5,4.1,1.5c0.7,1,1.1,2.5,1.1,4.4C117.2,33.4,117.2,67,117.2,67z
		 M113.2,32.7c0-0.4-0.1-0.7-0.3-1.1c-0.2-0.3-0.5-0.5-1-0.5c-0.4,0-0.7,0.2-1,0.5c-0.2,0.3-0.3,0.7-0.3,1.1v34.6
		c0,1.1,0.4,1.7,1.2,1.7c0.9,0,1.2-0.6,1.2-1.7V32.7H113.2z"/>
	<path class="st0" d="M120.4,27.8h3.9v1.9c0.5-0.6,1-1.1,1.4-1.5c0.5-0.4,1.2-0.6,2-0.6c1,0,1.7,0.2,2.1,0.6
		c0.4,0.4,0.7,0.9,0.9,1.3c0.2-0.4,0.6-0.7,1.1-1.2s1.1-0.7,1.9-0.7c1.1,0,1.9,0.4,2.5,1.1c0.6,0.7,0.9,1.7,0.9,2.8v40.7h-3.9V32.3
		c0-0.4-0.1-0.6-0.3-0.9c-0.2-0.3-0.5-0.4-0.9-0.4c-0.4,0-0.6,0.1-0.9,0.3c-0.3,0.2-0.4,0.5-0.4,0.9v39.9h-3.9V32.3
		c0-0.4-0.1-0.6-0.4-0.9c-0.3-0.3-0.5-0.4-0.9-0.4s-0.6,0.1-0.9,0.4c-0.3,0.3-0.4,0.5-0.4,0.9v39.8h-3.9L120.4,27.8L120.4,27.8z"/>
	<path class="st0" d="M150.6,54.2c-0.2,0.9-0.5,1.5-1.1,2.1c-0.5,0.5-1.2,0.9-2,1.1c-0.9,0.2-1.9,0.3-3.1,0.3v14.5h-3.9V27.8h5.3
		c1.5,0,2.8,0.3,3.7,1c1,0.7,1.4,1.8,1.4,3.2v18.9C150.9,52.3,150.8,53.4,150.6,54.2z M146.5,31.6c-0.3-0.2-1-0.3-2-0.3v22.8
		c1,0,1.6-0.2,2-0.5c0.4-0.3,0.5-1,0.5-2.2V33C147,32.2,146.8,31.8,146.5,31.6z"/>
	<path class="st0" d="M152.2,27.8h9.7v3.3H159v41.1h-3.9V31.1h-2.8L152.2,27.8L152.2,27.8z"/>
	<path class="st0" d="M164.1,72.2V27.8h5.3c1.5,0,2.8,0.3,3.7,1c1,0.7,1.4,1.8,1.4,3.2v18.9c0,1.4-0.2,2.4-0.6,3s-0.9,1.1-1.3,1.4
		c0.6,0.2,1,0.6,1.4,1.3c0.4,0.6,0.5,1.2,0.5,1.8v13.7h-3.9v-13c0-0.9-0.2-1.4-0.5-1.7c-0.4-0.3-1-0.4-2-0.4v15.1L164.1,72.2
		L164.1,72.2z M170.1,31.7c-0.3-0.2-1-0.3-2-0.3v22.1c1,0,1.6-0.2,2-0.5c0.4-0.3,0.5-1,0.5-2.2V33C170.5,32.3,170.4,31.8,170.1,31.7
		z"/>
	<path class="st0" d="M177.8,33.6c0-1.9,0.4-3.4,1.2-4.5c0.8-1.1,2.1-1.6,4-1.6h5.2v44.6h-3.9v-8.7h-2.5v8.7h-3.9L177.8,33.6
		L177.8,33.6z M182,31.5c-0.2,0.3-0.3,0.6-0.3,1.1v27.3h2.5V31.1H183C182.5,31.1,182.2,31.2,182,31.5z"/>
	<path class="st0" d="M191.5,27.8h3.9v44.4h-3.9V27.8z"/>
	<path class="st0" d="M197.6,27.8h9.7v3.3h-2.9v41.1h-3.9V31.1h-2.8V27.8z"/>
	<path class="st0" d="M209.4,33.6c0-1.9,0.4-3.4,1.2-4.5c0.9-1.1,2.2-1.6,4-1.6c2,0,3.4,0.5,4.1,1.5c0.7,1,1.1,2.5,1.1,4.4v11.8
		l-3.9-2.9v-9.7c0-0.4-0.1-0.7-0.3-1c-0.2-0.3-0.5-0.5-1-0.5c-0.4,0-0.7,0.2-1,0.5c-0.2,0.3-0.3,0.6-0.3,1v14.1c0,1.6,0.3,2.8,1,3.7
		c0.7,0.9,1.4,1.8,2.2,2.6c0.8,0.9,1.5,1.8,2.2,2.9c0.7,1.1,1,2.7,1,4.7V67c0,1.8-0.4,3.1-1.3,4s-2.2,1.4-3.8,1.4
		c-1.6,0-2.8-0.4-3.8-1.3c-1-0.9-1.4-2.3-1.4-4.1v-6.3l3.9,3.9v2.5c0,1.1,0.4,1.7,1.2,1.7c0.9,0,1.2-0.5,1.2-1.7v-6.9
		c0-1.2-0.3-2.3-1-3.2c-0.7-0.9-1.4-1.8-2.2-2.7c-0.8-0.9-1.5-1.8-2.2-2.8c-0.7-1-1-2.1-1-3.5V33.6H209.4z"/>
</g>
</svg>
