<?xml version="1.0" encoding="utf-8"?>
<!-- Generator: Adobe Illustrator 25.1.0, SVG Export Plug-In . SVG Version: 6.00 Build 0)  -->
<svg version="1.1" id="Capa_1" xmlns="http://www.w3.org/2000/svg" xmlns:xlink="http://www.w3.org/1999/xlink" x="0px" y="0px"
	 viewBox="0 0 300 100" style="enable-background:new 0 0 300 100;" xml:space="preserve">
<style type="text/css">
	.st0{fill:#FFFFFF;}
</style>
<g>
	<path class="st0" d="M37.9,58c-0.4,1.6-1,2.9-2,3.9c-0.9,0.9-2.2,1.6-3.8,2c-1.6,0.4-3.5,0.6-5.8,0.6v27.2h-7.4V8.3h9.9
		c2.9,0,5.2,0.6,7,1.9c1.8,1.3,2.7,3.3,2.7,6v35.5C38.5,54.3,38.3,56.4,37.9,58z M30.1,15.5c-0.6-0.3-1.9-0.5-3.8-0.5v42.8
		c1.8,0,3-0.3,3.7-0.9c0.7-0.6,1-1.9,1-4.1V18.1C31,16.7,30.7,15.8,30.1,15.5z"/>
	<path class="st0" d="M43,91.7V8.3h9.9c2.9,0,5.2,0.6,7,1.9c1.8,1.3,2.7,3.3,2.7,6v35.5c0,2.6-0.4,4.5-1.1,5.7
		c-0.7,1.2-1.6,2-2.5,2.6c1.1,0.4,1.9,1.2,2.6,2.4c0.7,1.2,1,2.3,1,3.4v25.8h-7.4V67.2c0-1.6-0.3-2.7-1-3.2
		c-0.7-0.5-1.9-0.7-3.7-0.7v28.3H43z M54.2,15.6c-0.6-0.4-1.9-0.6-3.8-0.6v41.5c1.8,0,3-0.3,3.7-0.9c0.7-0.6,1-1.9,1-4.1V18.1
		C55.1,16.8,54.8,15.9,54.2,15.6z"/>
	<path class="st0" d="M88.3,81.9c0,3.3-0.8,5.8-2.5,7.6c-1.7,1.8-4.1,2.7-7.2,2.7c-3,0-5.3-0.8-7.1-2.5c-1.8-1.7-2.7-4.3-2.7-7.7
		V19.2c0-3.6,0.8-6.4,2.3-8.4c1.6-2,4.1-3,7.5-3c3.8,0,6.3,0.9,7.7,2.8c1.3,1.9,2,4.7,2,8.3V81.9z M80.8,17.5c0-0.7-0.2-1.4-0.5-2
		c-0.3-0.6-0.9-0.9-1.9-0.9c-0.8,0-1.4,0.3-1.8,0.9c-0.4,0.6-0.6,1.3-0.6,2v64.9c0,2.1,0.8,3.1,2.3,3.1c1.6,0,2.3-1.1,2.3-3.2V17.5z
		"/>
	<path class="st0" d="M94.4,8.3h7.4v3.6c0.9-1.2,1.8-2.1,2.7-2.9c0.9-0.8,2.2-1.2,3.8-1.2c1.9,0,3.2,0.4,3.9,1.2
		c0.7,0.8,1.3,1.6,1.7,2.4c0.4-0.7,1.1-1.4,2-2.3c0.9-0.9,2.1-1.3,3.6-1.3c2,0,3.5,0.7,4.7,2.1c1.2,1.4,1.7,3.2,1.7,5.3v76.4h-7.4
		V16.9c0-0.7-0.2-1.2-0.6-1.7c-0.4-0.5-0.9-0.7-1.6-0.7c-0.7,0-1.2,0.2-1.7,0.6c-0.5,0.4-0.7,0.9-0.7,1.6v74.9h-7.4V16.9
		c0-0.7-0.2-1.2-0.7-1.7c-0.5-0.5-1-0.7-1.7-0.7c-0.7,0-1.2,0.2-1.7,0.7c-0.5,0.5-0.7,1-0.7,1.7v74.8h-7.4V8.3z"/>
	<path class="st0" d="M151.1,58c-0.4,1.6-1,2.9-2,3.9c-0.9,0.9-2.2,1.6-3.8,2c-1.6,0.4-3.5,0.6-5.8,0.6v27.2h-7.4V8.3h9.9
		c2.9,0,5.2,0.6,7,1.9c1.8,1.3,2.7,3.3,2.7,6v35.5C151.7,54.3,151.5,56.4,151.1,58z M143.3,15.5c-0.6-0.3-1.9-0.5-3.8-0.5v42.8
		c1.8,0,3-0.3,3.7-0.9c0.7-0.6,1-1.9,1-4.1V18.1C144.3,16.7,143.9,15.8,143.3,15.5z"/>
	<path class="st0" d="M154.1,8.3h18.2v6.2h-5.4v77.1h-7.4V14.5h-5.3V8.3z"/>
	<path class="st0" d="M176.4,91.7V8.3h9.9c2.9,0,5.2,0.6,7,1.9c1.8,1.3,2.7,3.3,2.7,6v35.5c0,2.6-0.4,4.5-1.1,5.7
		c-0.7,1.2-1.6,2-2.5,2.6c1.1,0.4,1.9,1.2,2.6,2.4c0.7,1.2,1,2.3,1,3.4v25.8h-7.4V67.2c0-1.6-0.3-2.7-1-3.2
		c-0.7-0.5-1.9-0.7-3.7-0.7v28.3H176.4z M187.6,15.6c-0.6-0.4-1.9-0.6-3.8-0.6v41.5c1.8,0,3-0.3,3.7-0.9c0.7-0.6,1-1.9,1-4.1V18.1
		C188.5,16.8,188.2,15.9,187.6,15.6z"/>
	<path class="st0" d="M202.1,19.2c0-3.6,0.8-6.4,2.3-8.4c1.5-2,4-3,7.5-3h9.8v83.8h-7.4V75.2h-4.7v16.4h-7.4V19.2z M210.1,15.4
		c-0.4,0.6-0.6,1.2-0.6,2v51.3h4.7V14.5h-2.3C211,14.5,210.4,14.8,210.1,15.4z"/>
	<path class="st0" d="M227.8,8.3h7.4v83.3h-7.4V8.3z"/>
	<path class="st0" d="M239.3,8.3h18.2v6.2H252v77.1h-7.4V14.5h-5.3V8.3z"/>
	<path class="st0" d="M261.5,19.2c0-3.6,0.8-6.4,2.3-8.4c1.6-2,4.1-3,7.5-3c3.8,0,6.3,0.9,7.7,2.8c1.3,1.9,2,4.7,2,8.3v22.1
		l-7.4-5.4V17.4c0-0.7-0.2-1.3-0.5-1.9c-0.3-0.6-0.9-0.9-1.9-0.9c-0.8,0-1.4,0.3-1.8,0.9c-0.4,0.6-0.6,1.2-0.6,1.9v26.5
		c0,3,0.6,5.3,1.9,6.9c1.3,1.6,2.7,3.3,4.1,4.8c1.5,1.6,2.9,3.4,4.1,5.4c1.3,2.1,1.9,5,1.9,8.8v12.2c0,3.3-0.8,5.8-2.5,7.6
		c-1.7,1.8-4.1,2.7-7.2,2.7c-3,0-5.3-0.8-7.1-2.5c-1.8-1.7-2.7-4.3-2.7-7.7V70.3l7.4,7.4v4.7c0,2.1,0.8,3.1,2.3,3.1
		c1.6,0,2.3-1,2.3-3.1v-13c0-2.3-0.6-4.3-1.9-6c-1.3-1.7-2.7-3.4-4.1-5c-1.5-1.6-2.9-3.4-4.1-5.3c-1.3-1.9-1.9-4-1.9-6.5V19.2z"/>
</g>
</svg>
